<svg width="25" height="29" fill="none" xmlns="http://www.w3.org/2000/svg"><path fill-rule="evenodd" clip-rule="evenodd" d="M12.594 2.216a8.59 8.59 0 00-8.59 8.59H2.097a10.498 10.498 0 0120.996 0h-1.909a8.59 8.59 0 00-8.59-8.59z" fill="#323334"/><path fill-rule="evenodd" clip-rule="evenodd" d="M.398 10.208a.953.953 0 01.744-.357h22.904a.954.954 0 01.931 1.16l-3.485 15.684a2.863 2.863 0 01-2.794 2.243H6.49a2.863 2.863 0 01-2.794-2.243L.21 11.01a.954.954 0 01.187-.801v-.002zm1.933 1.551L5.56 26.282a.954.954 0 00.931.748h12.208a.955.955 0 00.931-.748l3.226-14.521H2.331z" fill="#323334"/></svg>