<svg width="30" height="28" fill="none" xmlns="http://www.w3.org/2000/svg"><path fill-rule="evenodd" clip-rule="evenodd" d="M14.707 5.052l-1.318-1.355C10.295.517 4.62 1.614 2.574 5.613c-.962 1.88-1.179 4.596.577 8.06 1.691 3.337 5.21 7.334 11.556 11.687 6.346-4.353 9.863-8.35 11.556-11.686 1.755-3.467 1.54-6.18.577-8.061-2.048-3.999-7.721-5.098-10.815-1.918l-1.318 1.357zm0 22.524C-13.481 8.949 6.027-5.59 14.383 2.1c.11.101.219.206.324.315.103-.109.211-.213.323-.313 8.354-7.695 27.864 6.844-.323 25.473z" fill="#323334"/></svg>