<svg width="30" height="22" fill="none" xmlns="http://www.w3.org/2000/svg"><path d="M25.91 5.5h-4.092V0H2.728C1.227 0 0 1.238 0 2.75v15.125h2.727C2.727 20.157 4.555 22 6.818 22c2.264 0 4.091-1.843 4.091-4.125h8.182c0 2.282 1.827 4.125 4.09 4.125 2.264 0 4.092-1.843 4.092-4.125H30V11l-4.09-5.5zm-.683 2.063L27.9 11h-6.082V7.562h3.41zM6.818 19.25c-.75 0-1.363-.619-1.363-1.375S6.068 16.5 6.818 16.5s1.364.619 1.364 1.375-.614 1.375-1.364 1.375zm3.027-4.125c-.75-.839-1.813-1.375-3.027-1.375-1.213 0-2.277.536-3.027 1.375H2.727V2.75h16.364v12.375H9.845zm13.337 4.125c-.75 0-1.364-.619-1.364-1.375s.614-1.375 1.364-1.375c.75 0 1.364.619 1.364 1.375s-.614 1.375-1.364 1.375z" fill="#F2C94C"/></svg>