<svg width="21" height="20" fill="none" xmlns="http://www.w3.org/2000/svg"><path d="M10.448 7.35a2.596 2.596 0 00-2.595 2.586 2.596 2.596 0 002.595 2.587 2.596 2.596 0 002.594-2.587 2.596 2.596 0 00-2.594-2.587zm7.78 2.586c0-1.07.01-2.132-.05-3.202-.06-1.242-.345-2.344-1.256-3.252-.912-.91-2.016-1.192-3.261-1.252-1.075-.06-2.14-.05-3.211-.05-1.075 0-2.14-.01-3.211.05-1.246.06-2.351.343-3.262 1.252-.913.91-1.195 2.01-1.255 3.252-.06 1.071-.051 2.133-.051 3.202 0 1.07-.01 2.133.05 3.203.06 1.242.345 2.344 1.256 3.252.913.91 2.016 1.192 3.262 1.252 1.074.06 2.138.05 3.21.05 1.075 0 2.14.01 3.212-.05 1.245-.06 2.35-.344 3.261-1.252.913-.91 1.195-2.01 1.256-3.252.062-1.07.05-2.131.05-3.203zm-7.78 3.98a3.98 3.98 0 110-7.96 3.98 3.98 0 110 7.96zm4.155-7.193a.93.93 0 110-1.86.93.93 0 110 1.86z" fill="#fff"/></svg>