<svg width="22" height="29" fill="none" xmlns="http://www.w3.org/2000/svg"><path d="M19.25 12.814H2.75c-.73 0-1.429.284-1.945.79A2.672 2.672 0 000 15.512v10.79c0 .716.29 1.402.805 1.908.516.506 1.216.79 1.945.79h16.5c.73 0 1.429-.284 1.945-.79A2.672 2.672 0 0022 26.302v-10.79c0-.716-.29-1.402-.805-1.908a2.777 2.777 0 00-1.945-.79zm0 13.488H2.75v-5.395h16.5v5.395zm0-8.093H2.75v-2.697h16.5v2.697zM17.875 4.721v6.744h-2.063v-4.72H8.085l3.327 3.277-1.457 1.443-5.83-5.732L9.955 0l1.457 1.443-3.327 3.278h9.79z" fill="#F2C94C"/></svg>