<svg width="22" height="21" fill="none" xmlns="http://www.w3.org/2000/svg"><path d="M11 0C4.935 0 0 4.71 0 10.5v4.35c0 1.075.987 1.95 2.2 1.95h1.1c.292 0 .572-.11.778-.308.206-.197.322-.463.322-.742v-5.4c0-.279-.116-.546-.322-.743A1.127 1.127 0 003.3 9.3h-.999C2.913 5.236 6.576 2.1 11 2.1c4.424 0 8.087 3.136 8.699 7.2H18.7c-.292 0-.572.11-.778.307a1.026 1.026 0 00-.322.743v6.45c0 1.158-.987 2.1-2.2 2.1h-2.2v-1.05H8.8V21h6.6c2.427 0 4.4-1.884 4.4-4.2 1.213 0 2.2-.875 2.2-1.95V10.5C22 4.71 17.065 0 11 0z" fill="#F2C94C"/></svg>