<svg width="21" height="20" fill="none" xmlns="http://www.w3.org/2000/svg"><path d="M18.287 4.935a6.67 6.67 0 01-1.91.513 3.303 3.303 0 001.459-1.825 6.563 6.563 0 01-2.106.8 3.31 3.31 0 00-2.425-1.046 3.313 3.313 0 00-3.318 3.31c0 .257.031.513.082.76a9.44 9.44 0 01-6.843-3.465 3.309 3.309 0 001.028 4.429 3.354 3.354 0 01-1.5-.42v.04a3.312 3.312 0 002.66 3.249 3.529 3.529 0 01-.874.112c-.216 0-.42-.021-.627-.05a3.323 3.323 0 003.102 2.296 6.663 6.663 0 01-4.12 1.414 7.02 7.02 0 01-.801-.04 9.416 9.416 0 005.097 1.484c6.103 0 9.442-5.042 9.442-9.418 0-.144 0-.287-.01-.43a7.135 7.135 0 001.664-1.713z" fill="#fff"/></svg>