<svg width="21" height="20" fill="none" xmlns="http://www.w3.org/2000/svg"><g clip-path="url(#clip0_1_348)" fill="#fff"><path d="M8.96 0H7.837L7.09 2.857 6.344 0H5.098c.25.745.498 1.366.747 2.112.374.993.623 1.863.623 2.36v2.98H7.59v-2.98L8.96 0zm2.988 5.59V3.725c0-.62-.124-.993-.373-1.366-.25-.373-.623-.497-1.121-.497s-.872.249-1.121.621c-.25.249-.374.621-.374 1.242v1.987c0 .622.125.994.374 1.243.249.372.623.496 1.12.496.5 0 .873-.248 1.122-.62.249-.125.373-.622.373-1.243zm-.996.248c0 .497-.124.745-.498.745s-.498-.248-.498-.745v-2.36c0-.497.124-.745.498-.745.373 0 .498.248.498.745v2.36zm4.733 1.614V1.863h-.996v4.223c-.25.373-.374.497-.623.497-.125 0-.25-.124-.25-.248V1.863h-.996V6.21c0 .373 0 .621.125.87 0 .248.249.372.623.372.373 0 .747-.248 1.12-.62v.62h.997zm.498 5.589c-.373 0-.498.249-.498.746v.497h.996v-.497c0-.497-.125-.746-.498-.746zm-3.612 0c-.124 0-.373.125-.498.249v3.354c.125.124.374.248.498.248.249 0 .373-.248.373-.745v-2.36c0-.497-.124-.746-.373-.746z"/><path d="M18.674 10.31c-.249-.87-.996-1.616-1.744-1.616-1.992-.248-4.11-.248-6.227-.248-2.118 0-4.11 0-6.228.248-.747 0-1.494.746-1.743 1.615-.25 1.242-.25 2.609-.25 3.85 0 1.243 0 2.609.25 3.85.249.87.871 1.491 1.743 1.616 2.118.248 4.11.248 6.228.248 2.117 0 4.11 0 6.227-.248.872-.125 1.62-.746 1.744-1.615.25-1.242.25-2.608.25-3.85s0-2.609-.25-3.85zM7.215 11.426H5.97v6.335H4.849v-6.335H3.728v-1.118h3.487v1.118zm2.99 6.335h-.997v-.622c-.373.497-.747.622-1.12.622-.374 0-.499-.125-.624-.373 0-.124-.124-.373-.124-.87v-4.347h.996v4.348c0 .124.125.248.25.248.249 0 .373-.124.622-.497v-4.099h.997v5.59zm3.736-1.74c0 .498 0 .87-.124 1.119-.125.372-.374.62-.748.62-.373 0-.747-.248-.996-.62v.496h-.997V10.31h.997v2.36c.373-.373.623-.621.996-.621.374 0 .623.248.748.621.124.248.124.621.124 1.118v2.236zm3.737-.869h-1.993v.994c0 .497.124.745.498.745.25 0 .374-.124.498-.372v-.622h.997v.746c0 .248-.125.372-.25.62-.248.373-.622.622-1.245.622-.498 0-.872-.249-1.245-.621-.25-.249-.374-.745-.374-1.242v-1.864c0-.62.124-.993.249-1.242.25-.372.623-.62 1.245-.62.499 0 .872.248 1.122.62.249.249.249.746.249 1.242v.994h.249z"/></g><defs><clipPath id="clip0_1_348"><path fill="#fff" transform="translate(.739)" d="M0 0h19.928v19.873H0z"/></clipPath></defs></svg>